PathFileType	4	(X/Y/Z)	C:\Github\BTS_project\Data\sports2d_results\test6 Exam_2026-03-06_143334_tvc4_Sports2D\test6 Exam_2026-03-06_143334_tvc4_Sports2D_px_person00.trc
DataRate	CameraRate	NumFrames	NumMarkers	Units	OrigDataRate	OrigDataStartFrame	OrigNumFrames
30.0	30.0	5	22	m	30.0	192	220
Frame#	Time	Hip			RHip			RKnee			RAnkle			RBigToe			RSmallToe			RHeel			LHip			LKnee			LAnkle			LBigToe			LSmallToe			LHeel			Neck			Head			Nose			RShoulder			RElbow			RWrist			LShoulder			LElbow			LWrist			
		X1	Y1	Z1	X2	Y2	Z2	X3	Y3	Z3	X4	Y4	Z4	X5	Y5	Z5	X6	Y6	Z6	X7	Y7	Z7	X8	Y8	Z8	X9	Y9	Z9	X10	Y10	Z10	X11	Y11	Z11	X12	Y12	Z12	X13	Y13	Z13	X14	Y14	Z14	X15	Y15	Z15	X16	Y16	Z16	X17	Y17	Z17	X18	Y18	Z18	X19	Y19	Z19	X20	Y20	Z20	X21	Y21	Z21	X22	Y22	Z22
192	6.429223744292237	153.7265457530267	724.4846642332955	0.0	128.24544702122375	728.7759651719598	0.0	113.05768221277248	808.5009642905815	0.0	103.64555983557712	889.0744246608109	0.0	111.67429500021095	915.8951761684232	0.0	96.58981409882801	916.8358246386156	0.0	100.8358544369137	903.1584636823109	0.0	178.7364742925065	730.8439990732812	0.0	183.19205011172738	807.592005560198	0.0	184.87974106678598	881.7698673286163	0.0	206.30518237391993	903.6258505167665	0.0	209.44273704644485	901.4323807582803	0.0	176.38053591553768	895.9864463909664	0.0	151.68934805736004	593.7246036364477	0.0	149.195959174974	539.2410397709656	0.0	160.2413150334126	566.6649684724307	0.0	110.54929806863252	615.3073128620493	0.0	92.4037846937342	669.1835904184774	0.0	131.82773382466064	663.1575887760234	0.0	187.83628524325528	614.286073317168	0.0	210.17473560158004	666.9959763194481	0.0	193.62226462339464	668.9220051589847	0.0
193	6.462709284627093	153.70164273704967	724.599238736161	0.0	128.83810303066778	729.9757624938403	0.0	113.28070034197862	808.8074575135425	0.0	103.68004634190103	888.8453127953251	0.0	111.84306007612886	915.8632836672348	0.0	96.42516277052053	916.6401021936142	0.0	100.58362572386744	903.1089822800245	0.0	178.25391753288014	731.8325885605261	0.0	183.04159156143905	807.816466848319	0.0	184.72884413287483	881.6142941069298	0.0	206.6157897702209	903.6580131505935	0.0	209.65445565512053	901.6959034297164	0.0	176.33248566533481	896.3279101238041	0.0	151.60362723581406	594.4075725815314	0.0	149.24733923754928	539.7232638651024	0.0	160.74169762128804	566.9731238574101	0.0	110.86267424442782	615.490467479123	0.0	92.33950615406796	668.9357952551177	0.0	131.48658244258513	663.0249726079932	0.0	187.6761926000566	614.5912717110917	0.0	209.8683267451515	666.4476672390197	0.0	193.7679302244661	669.2119240767955	0.0
194	6.496194824961948	153.6789142883551	724.7144305157093	0.0	129.47928032094356	731.1597507459555	0.0	113.43862808890299	809.1393292669914	0.0	103.73077727859567	888.940588706238	0.0	112.24961519019288	915.9506476790226	0.0	96.43247945141786	916.5327908317875	0.0	100.03569868590449	902.8423085622225	0.0	178.07408874596067	732.9753526248445	0.0	182.9176026008135	808.0054080023905	0.0	184.9034403369914	881.6190160616013	0.0	206.0666870539917	903.5623568502883	0.0	209.09062202761305	901.7534399268984	0.0	176.3099808590812	896.8356822530209	0.0	151.7050937168719	594.65108022808	0.0	149.33321319884553	539.9564838312289	0.0	161.23836102901896	567.2383670858283	0.0	111.11192689214512	615.8908784370066	0.0	91.9926994735948	668.6090496289721	0.0	130.7355462973279	662.7893896299695	0.0	187.80542739638835	614.8166442830026	0.0	209.7952788538505	666.0700044788372	0.0	193.50481995426696	668.986395567178	0.0
195	6.529680365296803	153.59278641202445	724.7902429710532	0.0	129.5357155903606	731.270620654766	0.0	113.4571205485106	809.1970100252653	0.0	103.74186171785605	889.042665090236	0.0	112.35558248805344	916.0184991344139	0.0	96.44343294555792	916.569618366119	0.0	99.67982950872845	902.3518050889329	0.0	177.99117755883265	733.3662525191816	0.0	182.8473800457737	808.014118734312	0.0	185.18970379176235	881.7611087633907	0.0	205.48077244701875	903.4387466532255	0.0	208.3822292248854	901.5523577920299	0.0	176.3588880043523	897.122344169203	0.0	151.79918513276849	594.3661394714122	0.0	149.4041540257967	539.8675090014713	0.0	161.23675127831865	567.3149893886676	0.0	110.98278364233775	616.1606568728628	0.0	91.7345408909969	668.5164582534001	0.0	130.4319851349203	662.4534251617494	0.0	187.7921330769613	614.8766271087463	0.0	209.80403867229182	666.1117772403908	0.0	193.09603418541818	668.5764328158712	0.0
196	6.563165905631658	153.58156413704552	724.8711290009215	0.0	128.93190683170536	730.5082601680267	0.0	113.40212043724584	808.8904018134692	0.0	103.63668730536594	889.1479597046792	0.0	112.03099146946616	916.0805159667899	0.0	96.44960271293029	916.6638726353482	0.0	99.67288467239548	902.0223360091259	0.0	177.94133826074753	733.0227604955833	0.0	182.85096972485465	807.8263487202075	0.0	185.1955182499222	882.0110989459153	0.0	205.4313410952826	903.5117406000277	0.0	208.2249687680712	901.4204612737742	0.0	176.4911760193233	897.080184413201	0.0	151.8078007754052	593.983253742922	0.0	149.393733313765	539.5735615128172	0.0	160.86312205945143	567.2601470626355	0.0	110.53650733684358	616.0927043134716	0.0	91.62429295782113	668.7890993345673	0.0	130.6993701044673	662.2219906648963	0.0	187.73713471406575	614.7585552324584	0.0	209.78959890370447	666.8757733751595	0.0	193.04412397632512	668.9508674551587	0.0
